<svg width="523" height="478" viewBox="0 0 523 478" fill="none" xmlns="http://www.w3.org/2000/svg">
<g opacity="0.1" clip-path="url(#clip0_611_605)">
<path d="M330.743 256.551C334.569 231.691 338.012 207.979 341.837 183.884C342.602 178.147 349.871 174.323 355.227 175.853C366.703 179.677 378.562 183.119 390.039 186.944C392.334 187.709 395.012 190.386 395.777 192.681C403.428 214.098 410.314 235.898 417.965 257.316C419.495 261.523 418.347 263.053 414.522 264.965C398.455 272.997 382.388 281.411 366.703 289.825C363.26 291.737 360.965 291.355 358.67 288.295C350.253 278.734 341.455 269.172 333.039 259.611C331.891 259.228 331.126 257.316 330.743 256.551Z" fill="#858585"/>
<path d="M191.617 352.048C194.621 352.798 196.498 353.548 198.376 354.298C207.387 357.673 216.398 361.423 225.409 364.798C229.164 366.298 231.042 368.172 231.417 372.297C232.168 379.797 235.923 387.672 234.421 394.046C232.543 400.421 225.785 405.296 220.904 410.92C214.896 417.67 209.264 424.795 202.881 431.169C201.379 433.044 198.376 434.169 196.123 434.169C176.223 433.044 156.323 431.919 136.423 430.795C131.917 430.42 131.166 428.545 133.419 425.17C148.062 403.046 162.33 380.547 177.349 358.798C179.978 354.673 187.111 353.923 191.617 352.048Z" fill="#858585"/>
<path d="M329.04 184.806C325.661 207.305 322.657 229.053 319.653 250.427C319.278 253.802 317.776 255.302 314.021 256.052C298.627 258.677 282.857 261.302 267.463 263.927C262.581 264.677 257.7 261.677 256.949 256.427C254.321 237.678 252.068 218.554 250.191 199.43C250.191 197.93 251.693 194.93 253.195 194.18C261.455 189.68 270.091 185.556 278.351 181.056C279.478 180.306 280.98 179.556 282.106 179.931C297.876 181.431 313.27 182.931 329.04 184.806Z" fill="#858585"/>
<path d="M336.55 407.918C314.397 407.918 292.62 408.293 271.218 407.543C267.839 407.543 264.835 403.793 261.831 402.293C249.065 397.044 244.184 386.919 242.682 373.795C241.931 366.67 243.433 362.545 247.939 357.296C254.697 349.421 262.207 346.046 272.72 346.421C287.363 347.171 302.382 345.671 317.025 345.296C318.903 345.296 321.907 346.421 322.282 347.921C327.163 367.795 332.044 387.669 336.55 407.918Z" fill="#858585"/>
<path d="M359.825 307.798C373.717 327.672 387.234 346.796 400 365.92C402.253 369.295 403.379 373.42 403.755 377.545C404.881 385.419 405.257 393.294 406.383 401.919C388.736 405.668 371.464 409.418 354.193 412.793C352.691 413.168 348.936 410.543 348.561 408.668C343.304 386.919 338.047 365.17 333.166 343.421C332.791 341.921 333.542 340.046 334.293 338.922C342.553 328.422 350.813 318.297 359.825 307.798Z" fill="#858585"/>
<path d="M351.94 299.175C342.928 310.05 333.917 320.924 325.281 331.799C324.53 332.924 322.653 333.673 321.151 333.673C301.626 333.673 282.102 333.673 262.202 333.673C262.202 333.673 261.827 332.549 262.202 331.049C263.704 313.799 265.206 296.55 266.708 279.301C266.708 277.801 268.961 275.176 270.462 274.801C286.232 271.801 302.377 269.177 318.147 266.552C320.025 266.177 322.653 266.927 323.779 268.052C333.166 278.551 342.177 288.676 351.94 299.175Z" fill="#858585"/>
<path d="M133.044 442.044C154.07 443.544 174.721 444.669 194.997 446.169C196.123 446.169 198 448.419 198.376 449.919C201.004 457.793 203.257 466.043 205.134 474.293C205.51 475.417 205.51 477.667 204.759 478.417C190.866 491.917 176.974 505.041 163.082 518.165C163.457 518.915 163.457 519.29 163.832 520.04C161.58 518.165 159.702 516.291 157.449 514.416C146.936 504.666 136.048 495.292 125.534 485.542C123.282 483.292 122.531 481.792 123.282 478.417C126.661 466.418 129.665 454.418 133.044 442.044Z" fill="#858585"/>
<path d="M274.97 419.919C283.606 419.919 291.491 419.919 299.376 419.919C312.893 419.919 326.034 420.294 339.551 420.294C343.682 420.294 345.184 421.794 344.433 425.919C341.053 442.793 338.425 460.042 335.046 476.916C334.67 479.541 332.793 482.166 330.916 484.416C328.287 487.416 325.284 489.666 322.28 492.29C314.019 499.79 314.019 499.79 304.257 494.54C299.376 491.915 294.495 488.916 289.238 486.291C285.108 484.416 283.231 481.791 282.48 476.916C280.227 458.167 277.599 439.418 274.97 419.919Z" fill="#858585"/>
<path d="M242.305 403.418C248.688 407.543 254.695 411.293 260.703 415.418C261.829 416.168 262.955 418.043 263.331 419.543C266.335 439.792 268.963 460.416 271.591 481.79C260.703 483.29 250.189 485.915 239.301 485.915C234.42 485.915 229.539 480.665 224.282 478.415C218.274 476.165 216.397 471.29 215.271 465.666C214.52 462.291 213.769 458.541 212.267 455.541C207.761 446.166 209.639 438.667 217.523 431.167C226.159 422.918 234.044 412.793 242.305 403.418Z" fill="#858585"/>
<path d="M528.52 493.293C513.983 491.763 499.829 490.616 486.057 489.086C477.258 488.321 468.077 487.174 459.278 486.026C457.748 485.644 455.453 484.114 455.453 482.967C451.627 464.226 448.184 445.104 444.359 425.981C459.278 418.331 474.198 411.065 489.117 403.798C490.647 403.033 492.56 403.416 494.09 403.798C505.949 408.005 517.808 412.595 529.667 416.802C533.11 417.949 533.875 419.479 533.493 422.921C531.963 445.868 530.433 469.198 528.52 493.293Z" fill="#858585"/>
<path d="M602.355 118.867C593.174 133.783 584.375 148.317 575.576 162.85C574.429 164.762 571.751 165.91 569.838 166.292C557.214 168.969 544.59 171.264 531.966 173.559C523.932 175.089 515.899 168.204 515.516 160.173C515.133 142.962 514.368 125.752 513.986 108.541C513.986 104.716 515.133 103.187 518.194 101.274C531.201 93.2427 543.442 92.8603 557.214 100.127C569.838 106.629 583.61 111.218 596.617 116.573C598.529 116.955 600.06 118.103 602.355 118.867Z" fill="#858585"/>
<path d="M465.785 25.1649C479.557 13.3087 492.946 1.45252 507.101 -10.7861C517.429 1.07006 527.376 12.5438 537.322 24.0175C541.53 28.9895 546.121 33.9614 549.946 39.3158C551.094 40.8457 551.476 43.9053 550.711 45.4352C545.738 56.5264 540.765 67.2353 535.409 77.9441C534.644 79.8564 532.731 81.7687 531.201 82.5336C523.933 86.3581 516.664 89.4178 508.631 93.2424C494.094 70.2949 479.939 47.7299 465.785 25.1649Z" fill="#858585"/>
<path d="M539.231 407.623C538.849 407.623 537.701 407.24 536.936 406.858C525.077 402.651 513.218 398.061 501.359 393.854C497.916 392.707 497.151 391.177 497.533 387.735C499.064 374.732 500.211 361.345 501.359 348.342C501.359 347.577 501.359 346.43 501.741 346.047C508.245 338.398 514.748 330.749 521.251 323.482C522.017 322.717 524.312 323.1 525.459 323.482C538.084 326.924 551.09 330.749 563.714 334.191C570.218 336.103 572.513 341.075 570.6 347.195C564.862 364.405 559.124 381.233 553.003 398.444C551.09 403.416 544.97 407.623 539.231 407.623Z" fill="#858585"/>
<path d="M502.506 -22.6419C487.587 -9.25589 472.667 3.74767 458.13 16.7512C456.983 17.5162 455.453 17.8986 453.922 17.8986C447.419 17.5162 440.533 17.1337 434.03 16.3688C432.5 15.9863 430.204 14.4565 429.822 12.9267C425.996 -0.0769043 422.553 -13.4629 419.493 -26.4665C419.11 -27.9963 420.258 -30.6735 421.406 -31.8209C439.768 -45.5894 458.13 -58.9754 477.258 -72.7439C485.292 -56.2982 493.708 -39.8525 502.506 -22.6419Z" fill="#858585"/>
<path d="M494.472 178.913C483.761 199.948 473.05 219.836 463.868 240.106C458.513 251.962 451.627 258.082 438.237 258.847C432.117 259.229 430.204 257.699 428.291 252.345C421.788 232.074 414.902 212.187 408.016 192.299C406.486 188.474 407.634 186.944 411.076 185.032C419.11 180.825 427.526 178.913 436.707 178.913C455.452 179.295 474.197 178.913 494.472 178.913Z" fill="#858585"/>
<path d="M494.473 94.7717C481.849 97.4489 468.46 98.9787 456.218 103.186C441.682 108.158 431.735 103.951 421.406 94.0068C414.521 87.1225 411.843 81.3856 413.373 72.2067C414.903 61.4978 415.668 50.789 416.433 39.6977C416.816 33.9609 423.702 27.4591 429.823 27.8415C437.091 28.224 444.742 28.6065 452.01 29.3714C453.541 29.3714 455.453 30.5187 456.218 31.6661C469.225 51.9364 481.849 72.2067 494.856 92.8594C494.856 93.2418 494.473 93.6243 494.473 94.7717Z" fill="#858585"/>
<path d="M416.435 377.025C417.965 373.966 419.113 370.906 421.026 368.229C429.442 357.903 437.858 347.959 446.274 337.632C448.569 334.955 450.099 334.573 453.542 335.72C463.871 339.545 474.583 343.369 485.294 346.811C488.354 347.959 489.502 349.106 489.119 352.548C487.972 364.787 486.824 377.408 485.294 389.647C485.294 391.176 483.381 393.089 481.851 393.854C468.079 400.738 454.307 407.622 440.536 414.506C439.005 415.271 437.093 414.506 435.18 414.506L434.797 414.124C420.261 406.092 420.261 406.092 419.113 389.647C418.73 385.822 418.348 381.615 417.965 377.79C417.2 377.408 416.818 377.408 416.435 377.025Z" fill="#858585"/>
<path d="M352.289 477.624C352.48 474.078 352.272 470.74 353.039 467.327C357.081 453.6 361.3 440.213 365.343 426.486C366.509 422.866 367.933 421.698 372.058 420.851C384.612 418.652 397.566 416.245 410.344 413.499C414.07 412.86 415.797 413.257 416.982 416.52C421.414 428.007 426.023 439.834 430.057 451.529C430.761 452.887 429.642 455.621 428.395 457.129C417.171 470.701 405.947 484.273 394.724 497.845C393.477 499.353 391.126 499.71 389.127 500.746L388.551 500.613C369.664 501.357 369.664 501.357 360.896 487.378C358.736 484.19 356.4 480.662 354.241 477.474C353.265 477.549 352.865 477.756 352.289 477.624Z" fill="#858585"/>
<path d="M425.366 169.601C427.962 157.106 431.3 145.714 432.783 133.954C434.267 124.767 438.347 120.724 447.619 119.622C463.567 117.049 479.144 113.374 496.576 109.699C496.576 118.887 496.576 127.339 496.576 135.424C496.576 145.346 496.947 155.269 497.318 164.824C497.318 167.396 497.689 169.601 493.98 169.601C471.726 169.601 449.102 169.601 425.366 169.601Z" fill="#858585"/>
<path d="M406.104 95.5374C412.99 101.657 419.876 107.394 426.379 113.513C427.527 114.66 427.91 116.955 427.527 118.867C424.084 134.548 421.024 150.229 417.198 165.91C416.816 167.822 414.903 169.734 412.99 171.264C403.809 177.383 394.245 178.913 383.916 173.941C376.648 170.499 368.232 168.587 360.581 166.292C356.755 165.145 355.99 163.232 355.608 159.79C352.93 142.58 360.198 131.106 373.97 121.927C385.447 113.895 395.393 104.334 406.104 95.5374Z" fill="#858585"/>
<path d="M467.312 258.464C481.466 230.927 494.855 204.538 508.627 177.383C516.278 180.825 522.781 183.502 525.077 192.681C528.902 207.597 533.875 221.748 538.466 236.282C539.231 239.341 539.614 241.254 537.318 243.931C528.52 253.492 520.486 263.819 511.688 273.38C510.54 274.91 507.862 276.44 506.332 275.675C493.325 270.32 480.701 264.584 467.312 258.464Z" fill="#858585"/>
<path d="M590.11 261.524C582.077 282.177 574.426 302.064 566.775 322.717C563.715 321.952 560.654 321.187 557.594 320.422C548.03 317.745 538.466 315.068 528.903 312.008C526.607 311.243 525.077 308.184 523.164 306.271V305.889C521.252 299.005 516.661 292.121 517.809 286.001C518.956 280.264 525.842 275.292 530.05 270.32C535.406 264.201 540.379 258.082 545.735 251.962C546.882 250.433 549.943 249.668 551.473 250.05C564.097 253.492 576.721 257.317 590.11 261.524Z" fill="#858585"/>
<path d="M435.945 271.085C448.186 268.025 460.045 265.73 471.904 272.997C481.085 278.351 491.032 281.793 500.595 286.383C502.891 287.53 505.186 290.207 505.951 292.502C508.629 299.386 512.837 307.036 511.689 313.537C510.542 320.039 502.508 325.011 498.683 331.131C494.857 336.485 491.032 337.25 485.293 334.573C475.73 330.748 465.783 327.688 455.837 324.246C453.924 323.481 451.629 321.951 451.247 320.422C446.273 305.506 441.683 290.207 436.71 275.292C436.71 274.144 436.327 272.614 435.945 271.085Z" fill="#858585"/>
<path d="M370.53 302.064C388.51 292.885 406.107 283.706 424.47 274.145C426.383 279.882 428.295 285.619 429.825 290.973C432.503 299.387 434.416 308.184 437.859 316.215C440.919 323.482 439.772 328.836 434.416 334.573C426.765 342.987 419.497 351.784 411.846 361.345C397.691 341.075 384.302 321.952 370.53 302.064Z" fill="#858585"/>
<path d="M515.13 -19.5833C527.754 -24.9378 538.848 -30.6746 550.707 -34.4992C555.298 -36.029 561.419 -33.7343 567.157 -33.3518C573.278 -32.9694 575.956 -29.9097 577.103 -23.7904C580.164 -9.63945 584.372 4.12904 587.815 17.8975C588.197 19.4274 588.58 21.3396 588.962 23.6344C580.164 26.6941 571.747 29.7537 563.331 32.8134C562.184 33.1958 559.506 32.4309 558.741 31.666C544.586 14.8379 530.05 -1.99029 515.13 -19.5833Z" fill="#858585"/>
</g>
<path fill-rule="evenodd" clip-rule="evenodd" d="M19.9942 259H30.0116V269.023H19.9942V259ZM44.9768 414.374L54.9942 424.396V478H44.9768V414.374ZM9.97683 478H19.9942V413.887L39.9884 402.281L59.9826 422.286V477.959H70V404.026L30.0116 363.976V274.014H0V284.037H9.97683V478Z" fill="#6A6969"/>
<defs>
<clipPath id="clip0_611_605">
<rect width="400" height="478" fill="white" transform="translate(123)"/>
</clipPath>
</defs>
</svg>
