<svg width="523" height="479" viewBox="0 0 523 479" fill="none" xmlns="http://www.w3.org/2000/svg">
<g opacity="0.1" clip-path="url(#clip0_607_606)">
<path d="M253 445.946C257.701 415.592 261.933 386.64 266.634 357.22C267.575 350.215 276.507 345.546 283.09 347.413C297.194 352.083 311.769 356.286 325.873 360.956C328.694 361.89 331.985 365.159 332.925 367.96C342.328 394.111 350.791 420.729 360.194 446.88C362.075 452.016 360.664 453.884 355.963 456.219C336.216 466.026 316.47 476.299 297.194 486.573C292.963 488.908 290.142 488.441 287.321 484.705C276.978 473.03 266.164 461.356 255.821 449.682C254.41 449.215 253.47 446.88 253 445.946Z" fill="#858585"/>
<path d="M251 358.084C246.886 385.604 243.229 412.206 239.571 438.349C239.114 442.477 237.286 444.311 232.714 445.229C213.971 448.439 194.771 451.65 176.029 454.861C170.086 455.778 164.143 452.109 163.229 445.687C160.029 422.755 157.286 399.363 155 375.972C155 374.137 156.829 370.468 158.657 369.551C168.714 364.047 179.229 359.002 189.286 353.498C190.657 352.581 192.486 351.663 193.857 352.122C213.057 353.957 231.8 355.791 251 358.084Z" fill="#858585"/>
<path d="M280 497.916C268.974 511.182 257.949 524.447 247.383 537.713C246.464 539.085 244.167 540 242.329 540C218.441 540 194.552 540 170.204 540C170.204 540 169.745 538.628 170.204 536.798C172.042 515.756 173.879 494.714 175.717 473.672C175.717 471.842 178.473 468.64 180.311 468.183C199.606 464.523 219.36 461.321 238.654 458.119C240.951 457.662 244.167 458.576 245.545 459.949C257.03 472.757 268.056 485.108 280 497.916Z" fill="#858585"/>
<path d="M584 278.13C572.883 296.296 562.229 313.996 551.576 331.697C550.186 334.026 546.944 335.423 544.628 335.889C529.342 339.149 514.056 341.944 498.771 344.739C489.043 346.602 479.316 338.218 478.853 328.436C478.39 307.475 477.463 286.514 477 265.553C477 260.895 478.39 259.032 482.095 256.703C497.844 246.921 512.667 246.456 529.342 255.306C544.628 263.224 561.303 268.814 577.052 275.335C579.368 275.801 581.221 277.198 584 278.13Z" fill="#858585"/>
<path d="M418 163.544C434.786 149.184 451.106 134.824 468.359 120C480.948 134.36 493.072 148.257 505.195 162.154C510.324 168.176 515.919 174.199 520.582 180.684C521.981 182.537 522.447 186.243 521.515 188.096C515.453 201.529 509.391 214.5 502.864 227.471C501.931 229.787 499.6 232.103 497.734 233.029C488.875 237.662 480.016 241.368 470.224 246C452.505 218.206 435.252 190.875 418 163.544Z" fill="#858585"/>
<path d="M473.918 96C462.752 74.5289 450.656 53.9914 441.816 32.0536C437.629 21.7848 439.49 8.71545 439.024 -2.95361C439.024 -4.3539 441.351 -6.22095 442.746 -6.68771C456.239 -12.2889 469.731 -18.3568 483.223 -23.4911C485.549 -24.4247 488.341 -23.9579 490.667 -23.0244C498.111 -19.7571 506.02 -16.4897 512.999 -12.2889C515.325 -10.8886 517.651 -7.15447 517.651 -4.82066C518.116 20.8513 518.116 46.0564 517.651 71.7284C517.651 74.5289 515.325 78.263 512.999 79.1966C500.437 84.7977 487.41 89.9321 473.918 96Z" fill="#858585"/>
<path d="M463 105.802C444.864 122.046 426.729 137.827 409.058 153.608C407.663 154.536 405.803 155 403.943 155C396.037 154.536 387.667 154.072 379.762 153.143C377.902 152.679 375.112 150.823 374.647 148.966C369.997 133.186 365.811 116.941 362.091 101.16C361.626 99.3038 363.021 96.0549 364.416 94.6624C386.737 77.9536 409.058 61.7089 432.309 45C442.074 64.9578 452.305 84.9156 463 105.802Z" fill="#858585"/>
<path d="M453 351C439.845 376.772 426.689 401.137 415.413 425.972C408.835 440.498 400.378 447.995 383.934 448.932C376.417 449.4 374.067 447.526 371.718 440.966C363.731 416.132 355.274 391.766 346.817 367.4C344.937 362.714 346.347 360.84 350.575 358.497C360.442 353.343 370.778 351 382.055 351C405.077 351.469 428.099 351 453 351Z" fill="#858585"/>
<path d="M502 358.443C518.333 355.17 534.2 351.897 550.067 349.092C551.933 348.624 554.267 350.027 555.667 351.43C574.333 366.859 593 382.288 611.667 397.718C613.533 399.12 613.533 402.393 614 405.199C614 406.134 613.067 407.069 613.067 408.004C611.2 425.304 601.4 434.655 584.6 437.46C581.333 437.928 577.133 438.395 573.867 437.46C558.467 433.252 543.067 428.577 527.667 423.433C525.333 422.498 522.067 420.628 521.133 418.758C514.6 399.12 508.533 379.015 502 358.443Z" fill="#858585"/>
<path d="M452.538 249.111C437.278 252.395 421.093 254.272 406.296 259.432C388.724 265.53 376.701 260.37 364.215 248.173C355.892 239.73 352.655 232.693 354.504 221.435C356.354 208.3 357.279 195.165 358.204 181.562C358.666 174.525 366.99 166.551 374.389 167.02C383.175 167.489 392.423 167.958 401.209 168.896C403.059 168.896 405.371 170.303 406.296 171.711C422.018 196.573 437.278 221.435 453 246.766C453 247.235 452.538 247.704 452.538 249.111Z" fill="#858585"/>
<path d="M369 340C372.139 324.773 376.174 310.89 377.968 296.558C379.761 285.362 384.694 280.436 395.903 279.092C415.184 275.957 434.016 271.479 455.091 267C455.091 278.196 455.091 288.497 455.091 298.35C455.091 310.442 455.539 322.534 455.988 334.178C455.988 337.313 456.436 340 451.952 340C425.049 340 397.697 340 369 340Z" fill="#858585"/>
<path d="M344.864 249C353.209 256.52 361.554 263.57 369.435 271.09C370.826 272.5 371.29 275.321 370.826 277.671C366.654 296.941 362.945 316.211 358.308 335.482C357.845 337.832 355.527 340.182 353.209 342.062C342.082 349.582 330.491 351.462 317.974 345.352C309.165 341.122 298.965 338.772 289.693 335.952C285.057 334.542 284.129 332.192 283.666 327.961C280.421 306.811 289.229 292.711 305.92 281.431C319.828 271.56 331.882 259.81 344.864 249Z" fill="#858585"/>
<path d="M419 447.784C436.361 414.235 452.783 382.083 469.675 349C479.059 353.194 487.036 356.455 489.851 367.638C494.543 385.811 500.643 403.052 506.273 420.758C507.212 424.486 507.681 426.816 504.866 430.077C494.074 441.726 484.22 454.307 473.429 465.956C472.021 467.82 468.736 469.684 466.86 468.752C450.906 462.229 435.422 455.239 419 447.784Z" fill="#858585"/>
<path d="M570 452.153C560.136 477.414 550.741 501.739 541.347 527C537.589 526.064 533.832 525.129 530.074 524.193C518.331 520.919 506.588 517.644 494.845 513.902C492.027 512.966 490.148 509.224 487.799 506.885V506.417C485.451 497.997 479.814 489.577 481.223 482.092C482.632 475.075 491.087 468.994 496.254 462.912C502.83 455.428 508.936 447.943 515.513 440.458C516.922 438.587 520.679 437.651 522.558 438.119C538.059 442.329 553.56 447.007 570 452.153Z" fill="#858585"/>
<path d="M381 463.523C395.992 459.828 410.515 457.057 425.039 465.832C436.283 472.298 448.464 476.455 460.176 481.997C462.987 483.382 465.798 486.615 466.735 489.386C470.015 497.699 475.168 506.936 473.762 514.787C472.357 522.639 462.519 528.643 457.834 536.032C453.149 542.498 448.464 543.421 441.436 540.189C429.724 535.57 417.543 531.875 405.362 527.719C403.019 526.795 400.208 524.948 399.74 523.101C393.649 505.089 388.027 486.615 381.937 468.603C381.937 467.218 381.468 465.37 381 463.523Z" fill="#858585"/>
<path d="M588.746 264C564.031 253.702 540.249 243.871 516 234.041C522.995 219.061 529.99 204.55 536.984 190.038C537.917 188.634 539.782 187.698 541.648 186.761C545.845 184.889 550.508 183.953 554.705 182.08C571.959 172.25 588.746 175.059 606 185.357C600.404 210.635 594.342 236.849 588.746 264Z" fill="#858585"/>
<path d="M302 500.939C323.889 489.781 345.313 478.623 367.667 467C369.996 473.974 372.325 480.947 374.187 487.456C377.448 497.684 379.776 508.377 383.968 518.14C387.694 526.974 386.296 533.482 379.776 540.456C370.462 550.684 361.613 561.377 352.298 573C335.067 548.36 318.766 525.114 302 500.939Z" fill="#858585"/>
<path d="M478 108.859C493.56 102.317 507.233 95.3082 521.85 90.6354C527.508 88.7663 535.052 91.57 542.124 92.0372C549.668 92.5045 552.969 96.2427 554.383 103.719C558.155 121.008 563.342 137.83 567.585 154.652C568.057 156.521 568.528 158.857 569 161.661C558.155 165.399 547.782 169.138 537.409 172.876C535.995 173.343 532.694 172.408 531.751 171.474C514.306 150.914 496.389 130.354 478 108.859Z" fill="#858585"/>
</g>
<path fill-rule="evenodd" clip-rule="evenodd" d="M108.707 196H121.586V208.952H108.707V196ZM140.827 396.779L153.707 409.731V479H140.827V396.779ZM95.8274 479H108.707V396.15L134.414 381.153L160.121 407.005V478.948H173V383.408L121.586 331.653V215.402H83V228.353H95.8274V479Z" fill="#6A6969"/>
<defs>
<clipPath id="clip0_607_606">
<rect width="523" height="479" fill="white"/>
</clipPath>
</defs>
</svg>
